<mxfile host="app.diagrams.net" modified="2024-07-21T04:05:39.325Z" agent="Mozilla/5.0 (Macintosh; Intel Mac OS X 10_15_7) AppleWebKit/537.36 (KHTML, like Gecko) Chrome/126.0.0.0 Safari/537.36" version="24.7.2" etag="yBlS2f9en-qlatu43LaW" type="github">
  <diagram name="Page-1" id="8OUiwOHx76oIt_bavmCx">
    <mxGraphModel>
      <root>
        <mxCell id="0" />
        <mxCell id="1" parent="0" />
      </root>
    </mxGraphModel>
  </diagram>
</mxfile>
